<svg xmlns="http://www.w3.org/2000/svg" width="1200" height="630" viewBox="0 0 1200 630">
  <defs>
    <linearGradient id="background" x1="0" y1="0" x2="1" y2="1">
      <stop offset="0" stop-color="#071226"/>
      <stop offset="1" stop-color="#0b2030"/>
    </linearGradient>
    <linearGradient id="accent" x1="0" y1="0" x2="1" y2="1">
      <stop offset="0" stop-color="#48dbc0"/>
      <stop offset="1" stop-color="#19b58f"/>
    </linearGradient>
    <filter id="glow" x="-50%" y="-50%" width="200%" height="200%">
      <feGaussianBlur stdDeviation="24"/>
    </filter>
  </defs>
  <rect width="1200" height="630" fill="url(#background)"/>
  <circle cx="1055" cy="105" r="210" fill="#17b58e" opacity=".08" filter="url(#glow)"/>
  <circle cx="95" cy="600" r="170" fill="#48dbc0" opacity=".06" filter="url(#glow)"/>
  <rect x="58" y="58" width="1084" height="514" rx="34" fill="none" stroke="#23405a" stroke-width="2"/>
  <g transform="translate(104 178) scale(2.18)" fill="none" stroke="url(#accent)" stroke-width="6.5" stroke-linecap="round" stroke-linejoin="round">
    <path d="M8 9H39V40H8Z"/>
    <path d="M61 9H92V40H61Z"/>
    <path d="M8 60H39V91H8Z"/>
    <path d="M61 60H92V91H61Z"/>
    <path d="M39 24.5H61M39 75.5H61M23.5 40V60M76.5 40V60"/>
  </g>
  <text x="400" y="258" fill="#f4f7ff" font-family="Arial, Helvetica, sans-serif" font-size="66" font-weight="700">Mīklu režģis</text>
  <text x="404" y="326" fill="#9eafc8" font-family="Arial, Helvetica, sans-serif" font-size="27" font-weight="400">Mini mīklu un atrodi atbildi burtu režģī.</text>
  <rect x="404" y="376" width="166" height="5" rx="2.5" fill="url(#accent)"/>
</svg>
