<?xml version="1.0" encoding="UTF-8"?>
<svg xmlns="http://www.w3.org/2000/svg" width="200" height="200" viewBox="0 0 200 200" role="img" aria-label="ResearchGames high-contrast favicon">
  <rect x="8" y="8" width="184" height="184" rx="42" fill="#6332F2"/>
  <g transform="translate(24.56 32.76) scale(.82)" fill="none" stroke="#FFFFFF" stroke-width="10" stroke-linecap="round" stroke-linejoin="round"><line x1="24" y1="42" x2="92" y2="4"/><line x1="92" y1="4" x2="160" y2="42"/><line x1="160" y1="42" x2="160" y2="118"/><line x1="160" y1="118" x2="92" y2="160"/><line x1="92" y1="160" x2="24" y2="118"/><line x1="24" y1="118" x2="24" y2="42"/><line x1="24" y1="42" x2="92" y2="80"/><line x1="160" y1="42" x2="92" y2="80"/><line x1="24" y1="118" x2="92" y2="80"/><line x1="92" y1="4" x2="92" y2="80"/><line x1="92" y1="80" x2="92" y2="160"/></g>
  <g transform="translate(24.56 32.76) scale(.82)" fill="#FFFFFF"><circle cx="24" cy="42" r="11"/><circle cx="92" cy="4" r="11"/><circle cx="160" cy="42" r="11"/><circle cx="24" cy="118" r="11"/><circle cx="92" cy="160" r="11"/><circle cx="160" cy="118" r="11"/><circle cx="92" cy="80" r="11"/></g>
</svg>