<?xml version="1.0" encoding="UTF-8"?>
<svg xmlns="http://www.w3.org/2000/svg" width="1120" height="205" viewBox="0 0 1120 205" role="img" aria-label="ResearchGames.eu logo">
<defs><linearGradient id="textGradient" gradientUnits="userSpaceOnUse" x1="218" y1="0" x2="1096" y2="0"><stop stop-color="#357CFF"/><stop offset=".52" stop-color="#6049F7"/><stop offset="1" stop-color="#7A32EF"/></linearGradient></defs>
<g transform="translate(7 39.4) scale(0.895)"><defs>
  <linearGradient id="line" gradientUnits="userSpaceOnUse" x1="12" y1="0" x2="172" y2="172"><stop stop-color="#7C3CFF"/><stop offset="1" stop-color="#2F83FF"/></linearGradient>
  <radialGradient id="nodeP" cx="35%" cy="25%"><stop stop-color="#D8C7FF"/><stop offset=".45" stop-color="#8855FF"/><stop offset="1" stop-color="#4A19C9"/></radialGradient>
  <radialGradient id="nodeB" cx="35%" cy="25%"><stop stop-color="#D2E5FF"/><stop offset=".45" stop-color="#5798FF"/><stop offset="1" stop-color="#1452C6"/></radialGradient>
</defs><g fill="none" stroke="url(#line)" stroke-width="5" stroke-linecap="round" stroke-linejoin="round"><line x1="24" y1="42" x2="92" y2="4"/>
<line x1="92" y1="4" x2="160" y2="42"/>
<line x1="160" y1="42" x2="160" y2="118"/>
<line x1="160" y1="118" x2="92" y2="160"/>
<line x1="92" y1="160" x2="24" y2="118"/>
<line x1="24" y1="118" x2="24" y2="42"/>
<line x1="24" y1="42" x2="92" y2="80"/>
<line x1="160" y1="42" x2="92" y2="80"/>
<line x1="24" y1="118" x2="92" y2="80"/>
<line x1="92" y1="4" x2="92" y2="80"/>
<line x1="92" y1="80" x2="92" y2="160"/></g><circle cx="24" cy="42" r="12" fill="url(#nodeP)" stroke="#29116F" stroke-width="1.4"/><circle cx="92" cy="4" r="12" fill="url(#nodeP)" stroke="#29116F" stroke-width="1.4"/><circle cx="160" cy="42" r="12" fill="url(#nodeB)" stroke="#29116F" stroke-width="1.4"/><circle cx="24" cy="118" r="12" fill="url(#nodeB)" stroke="#29116F" stroke-width="1.4"/><circle cx="92" cy="160" r="12" fill="url(#nodeB)" stroke="#29116F" stroke-width="1.4"/><circle cx="160" cy="118" r="12" fill="url(#nodeP)" stroke="#29116F" stroke-width="1.4"/><circle cx="92" cy="80" r="12" fill="url(#nodeB)" stroke="#29116F" stroke-width="1.4"/></g>
<path d="M156 0V1466H911Q1121 1466 1232.0 1430.0Q1343 1394 1411.0 1296.5Q1479 1199 1479 1059Q1479 937 1427.0 848.5Q1375 760 1284 705Q1226 670 1125 647Q1206 620 1243 593Q1268 575 1315.5 516.0Q1363 457 1379 425L1598 0H1086L844 448Q798 535 762 561Q713 595 651 595H611V0ZM611 872H802Q833 872 922 892Q967 901 995.5 938.0Q1024 975 1024 1023Q1024 1094 979.0 1132.0Q934 1170 810 1170H611Z" transform="translate(218.000 145.000) scale(0.0449219 -0.0449219)" fill="#111111"/><path d="M1302 430H486Q497 332 539 284Q598 215 693 215Q753 215 807 245Q840 264 878 312L1279 275Q1187 115 1057.0 45.5Q927 -24 684 -24Q473 -24 352.0 35.5Q231 95 151.5 224.5Q72 354 72 529Q72 778 231.5 932.0Q391 1086 672 1086Q900 1086 1032.0 1017.0Q1164 948 1233.0 817.0Q1302 686 1302 476ZM888 625Q876 743 824.5 794.0Q773 845 689 845Q592 845 534 768Q497 720 487 625Z" transform="translate(287.270 145.000) scale(0.0449219 -0.0449219)" fill="#111111"/><path d="M51 294 455 332Q480 260 525.0 229.0Q570 198 645 198Q727 198 772 233Q807 259 807 298Q807 342 761 366Q728 383 586 408Q374 445 291.5 476.5Q209 508 152.5 583.0Q96 658 96 754Q96 859 157.0 935.0Q218 1011 325.0 1048.5Q432 1086 612 1086Q802 1086 892.5 1057.0Q983 1028 1043.5 967.0Q1104 906 1144 802L758 764Q743 815 708 839Q660 871 592 871Q523 871 491.5 846.5Q460 822 460 787Q460 748 500 728Q540 708 674 692Q877 669 976.0 628.0Q1075 587 1127.5 511.0Q1180 435 1180 344Q1180 252 1124.5 165.0Q1069 78 949.5 26.5Q830 -25 624 -25Q333 -25 209.5 58.0Q86 141 51 294Z" transform="translate(348.633 145.000) scale(0.0449219 -0.0449219)" fill="#111111"/><path d="M1302 430H486Q497 332 539 284Q598 215 693 215Q753 215 807 245Q840 264 878 312L1279 275Q1187 115 1057.0 45.5Q927 -24 684 -24Q473 -24 352.0 35.5Q231 95 151.5 224.5Q72 354 72 529Q72 778 231.5 932.0Q391 1086 672 1086Q900 1086 1032.0 1017.0Q1164 948 1233.0 817.0Q1302 686 1302 476ZM888 625Q876 743 824.5 794.0Q773 845 689 845Q592 845 534 768Q497 720 487 625Z" transform="translate(404.830 145.000) scale(0.0449219 -0.0449219)" fill="#111111"/><path d="M494 718 105 759Q127 861 168.5 919.5Q210 978 288 1021Q344 1052 442.0 1069.0Q540 1086 654 1086Q837 1086 948.0 1065.5Q1059 1045 1133 980Q1185 935 1215.0 852.5Q1245 770 1245 695V226Q1245 151 1254.5 108.5Q1264 66 1296 0H914Q891 41 884.0 62.5Q877 84 870 130Q790 53 711 20Q603 -24 460 -24Q270 -24 171.5 64.0Q73 152 73 281Q73 402 144 480Q215 558 406 596Q635 642 703.0 660.5Q771 679 847 709Q847 784 816.0 814.0Q785 844 707 844Q607 844 557 812Q518 787 494 718ZM847 504Q763 474 672 451Q548 418 515 386Q481 353 481 311Q481 263 514.5 232.5Q548 202 613 202Q681 202 739.5 235.0Q798 268 822.5 315.5Q847 363 847 439Z" transform="translate(466.193 145.000) scale(0.0449219 -0.0449219)" fill="#111111"/><path d="M127 1062H508V888Q563 1001 621.5 1043.5Q680 1086 766 1086Q856 1086 963 1030L837 740Q765 770 723 770Q643 770 599 704Q536 611 536 356V0H127Z" transform="translate(527.557 145.000) scale(0.0449219 -0.0449219)" fill="#111111"/><path d="M915 415 1302 371Q1270 250 1197.0 161.5Q1124 73 1010.5 24.0Q897 -25 722 -25Q553 -25 440.5 6.5Q328 38 247.0 108.5Q166 179 120.0 274.0Q74 369 74 526Q74 690 130 799Q171 879 242.0 942.5Q313 1006 388 1037Q507 1086 693 1086Q953 1086 1089.5 993.0Q1226 900 1281 721L898 670Q880 738 832.5 772.5Q785 807 705 807Q604 807 541.5 734.5Q479 662 479 515Q479 384 541.0 316.0Q603 248 699 248Q779 248 833.5 289.0Q888 330 915 415Z" transform="translate(569.963 145.000) scale(0.0449219 -0.0449219)" fill="#111111"/><path d="M123 1466H530V926Q613 1012 695.0 1049.0Q777 1086 889 1086Q1055 1086 1150.5 985.0Q1246 884 1246 675V0H837V584Q837 684 800.0 725.5Q763 767 696 767Q622 767 576.0 711.0Q530 655 530 510V0H123Z" transform="translate(629.754 145.000) scale(0.0449219 -0.0449219)" fill="#111111"/><path d="M887 531V836H1587V211Q1386 74 1231.5 24.5Q1077 -25 865 -25Q604 -25 439.5 64.0Q275 153 184.5 329.0Q94 505 94 733Q94 973 193.0 1150.5Q292 1328 483 1420Q632 1491 884 1491Q1127 1491 1247.5 1447.0Q1368 1403 1447.5 1310.5Q1527 1218 1567 1076L1130 998Q1103 1081 1038.5 1125.0Q974 1169 874 1169Q725 1169 636.5 1065.5Q548 962 548 738Q548 500 637.5 398.0Q727 296 887 296Q963 296 1032.0 318.0Q1101 340 1190 393V531Z" transform="translate(690.000 145.000) scale(0.0449219 -0.0449219)" fill="#6332F2"/><path d="M494 718 105 759Q127 861 168.5 919.5Q210 978 288 1021Q344 1052 442.0 1069.0Q540 1086 654 1086Q837 1086 948.0 1065.5Q1059 1045 1133 980Q1185 935 1215.0 852.5Q1245 770 1245 695V226Q1245 151 1254.5 108.5Q1264 66 1296 0H914Q891 41 884.0 62.5Q877 84 870 130Q790 53 711 20Q603 -24 460 -24Q270 -24 171.5 64.0Q73 152 73 281Q73 402 144 480Q215 558 406 596Q635 642 703.0 660.5Q771 679 847 709Q847 784 816.0 814.0Q785 844 707 844Q607 844 557 812Q518 787 494 718ZM847 504Q763 474 672 451Q548 418 515 386Q481 353 481 311Q481 263 514.5 232.5Q548 202 613 202Q681 202 739.5 235.0Q798 268 822.5 315.5Q847 363 847 439Z" transform="translate(766.637 145.000) scale(0.0449219 -0.0449219)" fill="#6332F2"/><path d="M126 1062H506V907Q588 1004 671.5 1045.0Q755 1086 873 1086Q1000 1086 1074.0 1041.0Q1148 996 1195 907Q1291 1011 1370.0 1048.5Q1449 1086 1565 1086Q1736 1086 1832.0 984.5Q1928 883 1928 667V0H1520V605Q1520 677 1492 712Q1451 767 1390 767Q1318 767 1274.0 715.0Q1230 663 1230 548V0H822V585Q822 655 814 680Q801 720 769.0 744.5Q737 769 694 769Q624 769 579.0 716.0Q534 663 534 542V0H126Z" transform="translate(828.000 145.000) scale(0.0449219 -0.0449219)" fill="#6332F2"/><path d="M1302 430H486Q497 332 539 284Q598 215 693 215Q753 215 807 245Q840 264 878 312L1279 275Q1187 115 1057.0 45.5Q927 -24 684 -24Q473 -24 352.0 35.5Q231 95 151.5 224.5Q72 354 72 529Q72 778 231.5 932.0Q391 1086 672 1086Q900 1086 1032.0 1017.0Q1164 948 1233.0 817.0Q1302 686 1302 476ZM888 625Q876 743 824.5 794.0Q773 845 689 845Q592 845 534 768Q497 720 487 625Z" transform="translate(920.000 145.000) scale(0.0449219 -0.0449219)" fill="#6332F2"/><path d="M51 294 455 332Q480 260 525.0 229.0Q570 198 645 198Q727 198 772 233Q807 259 807 298Q807 342 761 366Q728 383 586 408Q374 445 291.5 476.5Q209 508 152.5 583.0Q96 658 96 754Q96 859 157.0 935.0Q218 1011 325.0 1048.5Q432 1086 612 1086Q802 1086 892.5 1057.0Q983 1028 1043.5 967.0Q1104 906 1144 802L758 764Q743 815 708 839Q660 871 592 871Q523 871 491.5 846.5Q460 822 460 787Q460 748 500 728Q540 708 674 692Q877 669 976.0 628.0Q1075 587 1127.5 511.0Q1180 435 1180 344Q1180 252 1124.5 165.0Q1069 78 949.5 26.5Q830 -25 624 -25Q333 -25 209.5 58.0Q86 141 51 294Z" transform="translate(981.363 145.000) scale(0.0449219 -0.0449219)" fill="#6332F2"/><path d="M147 0V281H428V0Z" transform="translate(1035.000 145.000) scale(0.0205078 -0.0205078)" fill="#111111"/><path d="M762 338 1042 291Q988 137 871.5 56.5Q755 -24 580 -24Q303 -24 170 157Q65 302 65 523Q65 787 203.0 936.5Q341 1086 552 1086Q789 1086 926.0 929.5Q1063 773 1057 450H353Q356 325 421.0 255.5Q486 186 583 186Q649 186 694.0 222.0Q739 258 762 338ZM778 622Q775 744 715.0 807.5Q655 871 569 871Q477 871 417 804Q357 737 358 622Z" transform="translate(1046.669 145.000) scale(0.0205078 -0.0205078)" fill="#111111"/><path d="M846 0V159Q788 74 693.5 25.0Q599 -24 494 -24Q387 -24 302.0 23.0Q217 70 179.0 155.0Q141 240 141 390V1062H422V574Q422 350 437.5 299.5Q453 249 494.0 219.5Q535 190 598 190Q670 190 727.0 229.5Q784 269 805.0 327.5Q826 386 826 614V1062H1107V0Z" transform="translate(1070.027 145.000) scale(0.0205078 -0.0205078)" fill="#111111"/></svg>