<?xml version="1.0" encoding="UTF-8"?>
<svg xmlns="http://www.w3.org/2000/svg" width="180" height="180" viewBox="0 0 180 180" role="img" aria-label="ResearchGames icon">
<g transform="translate(-10 10)"><defs>
  <linearGradient id="line" gradientUnits="userSpaceOnUse" x1="12" y1="0" x2="172" y2="172"><stop stop-color="#7C3CFF"/><stop offset="1" stop-color="#2F83FF"/></linearGradient>
  <radialGradient id="nodeP" cx="35%" cy="25%"><stop stop-color="#D8C7FF"/><stop offset=".45" stop-color="#8855FF"/><stop offset="1" stop-color="#4A19C9"/></radialGradient>
  <radialGradient id="nodeB" cx="35%" cy="25%"><stop stop-color="#D2E5FF"/><stop offset=".45" stop-color="#5798FF"/><stop offset="1" stop-color="#1452C6"/></radialGradient>
</defs><g fill="none" stroke="url(#line)" stroke-width="5" stroke-linecap="round" stroke-linejoin="round"><line x1="24" y1="42" x2="92" y2="4"/>
<line x1="92" y1="4" x2="160" y2="42"/>
<line x1="160" y1="42" x2="160" y2="118"/>
<line x1="160" y1="118" x2="92" y2="160"/>
<line x1="92" y1="160" x2="24" y2="118"/>
<line x1="24" y1="118" x2="24" y2="42"/>
<line x1="24" y1="42" x2="92" y2="80"/>
<line x1="160" y1="42" x2="92" y2="80"/>
<line x1="24" y1="118" x2="92" y2="80"/>
<line x1="92" y1="4" x2="92" y2="80"/>
<line x1="92" y1="80" x2="92" y2="160"/></g><circle cx="24" cy="42" r="12" fill="url(#nodeP)" stroke="#29116F" stroke-width="1.4"/><circle cx="92" cy="4" r="12" fill="url(#nodeP)" stroke="#29116F" stroke-width="1.4"/><circle cx="160" cy="42" r="12" fill="url(#nodeB)" stroke="#29116F" stroke-width="1.4"/><circle cx="24" cy="118" r="12" fill="url(#nodeB)" stroke="#29116F" stroke-width="1.4"/><circle cx="92" cy="160" r="12" fill="url(#nodeB)" stroke="#29116F" stroke-width="1.4"/><circle cx="160" cy="118" r="12" fill="url(#nodeP)" stroke="#29116F" stroke-width="1.4"/><circle cx="92" cy="80" r="12" fill="url(#nodeB)" stroke="#29116F" stroke-width="1.4"/></g></svg>