<svg xmlns="http://www.w3.org/2000/svg" viewBox="0 0 64 64" preserveAspectRatio="xMidYMid meet">
  <defs>
    <linearGradient id="edge" x1="10" y1="8" x2="54" y2="56" gradientUnits="userSpaceOnUse">
      <stop stop-color="#b85cff"/>
      <stop offset=".48" stop-color="#7355ff"/>
      <stop offset="1" stop-color="#3a91ff"/>
    </linearGradient>
    <radialGradient id="violet" cx="34%" cy="28%" r="72%">
      <stop stop-color="#df9cff"/>
      <stop offset=".5" stop-color="#9257ff"/>
      <stop offset="1" stop-color="#5c2fca"/>
    </radialGradient>
    <radialGradient id="blue" cx="34%" cy="28%" r="72%">
      <stop stop-color="#a4d5ff"/>
      <stop offset=".48" stop-color="#559cff"/>
      <stop offset="1" stop-color="#2860ce"/>
    </radialGradient>
    <filter id="glow" x="-30%" y="-30%" width="160%" height="160%">
      <feGaussianBlur stdDeviation="1.4" result="blur"/>
      <feMerge><feMergeNode in="blur"/><feMergeNode in="SourceGraphic"/></feMerge>
    </filter>
  </defs>
  <g fill="none" stroke="url(#edge)" stroke-width="4" stroke-linecap="round" stroke-linejoin="round">
    <path d="M14 18 32 8l18 10v28L32 56 14 46V18Z"/>
    <path d="m14 18 18 11 18-11M14 46l18-10 18 10M32 8v21M32 29v27"/>
    <path d="m14 46 18-17 18 17" opacity=".9"/>
  </g>
  <g filter="url(#glow)">
    <circle cx="32" cy="8" r="5" fill="url(#violet)"/>
    <circle cx="14" cy="18" r="5" fill="url(#violet)"/>
    <circle cx="50" cy="18" r="5" fill="url(#blue)"/>
    <circle cx="14" cy="46" r="5" fill="url(#blue)"/>
    <circle cx="50" cy="46" r="5" fill="url(#violet)"/>
    <circle cx="32" cy="56" r="5" fill="url(#blue)"/>
    <circle cx="32" cy="29" r="5" fill="url(#blue)"/>
  </g>
</svg>
